<?xml version="1.0" encoding="UTF-8" standalone="no"?>
<!-- Generator: Adobe Illustrator 19.0.0, SVG Export Plug-In . SVG Version: 6.00 Build 0)  -->
<svg id="Capa_1" style="enable-background:new 0 0 80.6 44.5" xmlns="http://www.w3.org/2000/svg" xml:space="preserve" viewBox="0 0 80.6 44.5" version="1.0" y="0px" x="0px" xmlns:xlink="http://www.w3.org/1999/xlink">
<style type="text/css">
	.st0{fill:#23A0CC;}
</style>
	<path class="st0" d="m52.2 9.2c1.9-1.9 3.9-1.9 4.5-1.9h9c-1.2 1.6-2.6 3.5-2.6 3.5h4.4l3.8-5.4-3.8-5.4h-4.4l2.7 3.6h-9.1c-3 0-5.2 1-7.2 3l-19 19.6c-0.5 0.5-1.1 0.9-1.7 1.2-1.2-6.8-7.1-11.9-14.3-11.9-8 0-14.5 6.5-14.5 14.5s6.5 14.5 14.5 14.5c7.5 0 13.7-5.7 14.4-13.1 1.6-0.5 3-1.3 4.2-2.5l19.1-19.7zm-37.7 31.4c-5.9 0-10.7-4.7-10.7-10.6s4.8-10.6 10.6-10.6c5.2 0 9.6 3.8 10.5 8.7h-12.8l2.7 3.8h10.2c-0.9 4.9-5.3 8.7-10.5 8.7z"/>
	<path class="st0" d="m30.5 9.2l5.6 5.7 2.6-2.6-5.6-5.7c-1.9-1.9-4.4-3-7.2-3h-11l-2.7 3.7h13.8c1.6 0.1 3.3 0.7 4.5 1.9z"/>
	<path class="st0" d="m66.1 15.5c-6.6 0-12.3 4.5-14 10.6l-5.4-5.5-2.6 2.6 5.5 5.6c0.6 0.6 1.3 1.2 2 1.6 0.2 7.8 6.6 14 14.5 14 8 0 14.5-6.5 14.5-14.5 0-7.9-6.5-14.4-14.5-14.4zm0 25.1c-5.3 0-9.6-3.8-10.5-8.9 0.4 0 0.8 0.1 1.2 0.1h9.1c-1.2 1.7-2.7 3.6-2.7 3.6h4.4l3.8-5.4-3.8-5.4h-4.4s1.4 1.9 2.6 3.5h-9c-0.2 0-0.6 0-1.1-0.1 0.9-4.9 5.3-8.7 10.5-8.7 5.9 0 10.6 4.8 10.6 10.6s-4.8 10.7-10.7 10.7z"/>
</svg>
