<?xml version="1.0" encoding="UTF-8" standalone="no"?>
<!-- Generator: Adobe Illustrator 16.0.0, SVG Export Plug-In . SVG Version: 6.00 Build 0)  -->
<!DOCTYPE svg  PUBLIC '-//W3C//DTD SVG 1.1//EN'  'http://www.w3.org/Graphics/SVG/1.1/DTD/svg11.dtd'>
<svg id="Capa_1" style="enable-background:new 0 0 123.05 123.05" xmlns="http://www.w3.org/2000/svg" xml:space="preserve" height="512px" viewBox="0 0 123.05 123.05" width="512px" version="1.1" y="0px" x="0px" xmlns:xlink="http://www.w3.org/1999/xlink">
	<path d="m121.32 10.925l-8.5-8.399c-2.3-2.3-6.1-2.3-8.5 0l-42.4 42.399-43.194-43.199c-2.301-2.301-6.101-2.301-8.5 0l-8.5 8.5c-2.301 2.3-2.301 6.1 0 8.5l43.1 43.1-42.3 42.5c-2.3 2.3-2.3 6.1 0 8.5l8.5 8.5c2.3 2.3 6.1 2.3 8.5 0l42.399-42.4 42.4 42.4c2.3 2.3 6.1 2.3 8.5 0l8.5-8.5c2.3-2.3 2.3-6.1 0-8.5l-42.5-42.4 42.4-42.399c2.4-2.406 2.4-6.206 0.1-8.606z" fill="#58585b"/>
</svg>
