<?xml version="1.0" encoding="utf-8"?>
<!-- Generator: Adobe Illustrator 19.0.0, SVG Export Plug-In . SVG Version: 6.00 Build 0)  -->
<svg version="1.0" id="Capa_1" xmlns="http://www.w3.org/2000/svg" xmlns:xlink="http://www.w3.org/1999/xlink" x="0px" y="0px"
	 viewBox="0 0 83.6 83.6" style="enable-background:new 0 0 83.6 83.6;" xml:space="preserve">
<style type="text/css">
	.st0{fill:#fff;}
</style>
<path class="st0" d="M79.4,33.2l-6-1c-0.6-2-1.4-4-2.4-5.9l3.5-4.9c1.4-2,1.2-4.7-0.5-6.5l-5.2-5.2c-1-1-2.2-1.5-3.6-1.5
	c-1,0-2.1,0.3-2.9,0.9l-5,3.5c-1.9-1-4-1.9-6.1-2.5l-1-5.9c-0.4-2.4-2.5-4.2-5-4.2h-7.4c-2.5,0-4.6,1.8-5,4.2l-1,6
	c-2,0.6-4,1.5-5.9,2.5l-4.9-3.5c-0.9-0.6-1.9-0.9-2.9-0.9c-1.3,0-2.6,0.5-3.6,1.5L9.5,15c-1.7,1.7-2,4.5-0.5,6.5l3.6,5
	c-1,1.9-1.8,3.8-2.4,5.9l-5.9,1c-2.4,0.4-4.2,2.5-4.2,5v7.4c0,2.5,1.8,4.6,4.2,5l6,1c0.6,2,1.5,4,2.5,5.9l-3.5,4.9
	c-1.4,2-1.2,4.7,0.5,6.5l5.2,5.2c1,0.9,2.2,1.5,3.6,1.5c1,0,2.1-0.3,2.9-0.9l5-3.6c1.8,1,3.7,1.7,5.7,2.3l1,6c0.4,2.4,2.5,4.2,5,4.2
	h7.4c2.5,0,4.6-1.8,5-4.2l1-6c2-0.6,4-1.4,5.9-2.4l4.9,3.5c0.9,0.6,1.9,0.9,2.9,0.9l0,0c1.3,0,2.6-0.5,3.6-1.5l5.2-5.2
	c1.7-1.7,2-4.5,0.5-6.5l-3.5-5c1-1.9,1.8-3.8,2.4-5.9l6-1c2.4-0.4,4.2-2.5,4.2-5v-7.4C83.6,35.7,81.9,33.6,79.4,33.2z M80.5,45.7
	c0,0.3-0.2,0.6-0.5,0.6l-7.6,1.3c-0.9,0.1-1.6,0.8-1.8,1.7c-0.7,2.7-1.8,5.2-3.2,7.6c-0.5,0.8-0.4,1.7,0.1,2.5l4.5,6.3
	c0.2,0.2,0.1,0.6-0.1,0.8l-5.4,5.4C66.3,72,66.1,72,66,72c-0.1,0-0.2,0-0.4-0.1l-6.3-4.5c-0.7-0.5-1.7-0.6-2.5-0.1
	c-2.4,1.4-5,2.5-7.6,3.2c-0.9,0.2-1.5,0.9-1.7,1.8l-1.3,7.6c0,0.3-0.3,0.5-0.6,0.5H38c-0.3,0-0.6-0.2-0.6-0.5l-1.3-7.6
	c-0.1-0.9-0.8-1.6-1.7-1.8c-2.6-0.7-5.1-1.7-7.5-3.1c-0.4-0.2-0.8-0.3-1.2-0.3c-0.5,0-0.9,0.1-1.3,0.4l-6.3,4.5
	c-0.1,0.1-0.3,0.1-0.4,0.1c-0.1,0-0.3,0-0.5-0.2l-5.4-5.4c-0.2-0.2-0.2-0.6-0.1-0.8l4.5-6.2c0.5-0.7,0.6-1.7,0.1-2.5
	c-1.4-2.4-2.5-4.9-3.2-7.6c-0.2-0.9-0.9-1.5-1.8-1.7l-7.7-1.3c-0.3,0-0.5-0.3-0.5-0.6v-7.6c0-0.3,0.2-0.6,0.5-0.6l7.6-1.3
	c0.9-0.2,1.6-0.8,1.8-1.7c0.7-2.7,1.7-5.3,3.1-7.6c0.5-0.8,0.4-1.7-0.1-2.5l-4.5-6.3c-0.2-0.3-0.2-0.6,0.1-0.8l5.4-5.4
	c0.2-0.2,0.3-0.2,0.4-0.2c0.1,0,0.2,0,0.4,0.1l6.2,4.5c0.7,0.5,1.7,0.6,2.5,0.1c2.4-1.4,4.9-2.5,7.6-3.2c0.9-0.2,1.5-0.9,1.7-1.8
	l1.3-7.7c0.1-0.3,0.3-0.5,0.6-0.5h7.6c0.3,0,0.6,0.2,0.6,0.5l1.3,7.6c0.1,0.9,0.8,1.6,1.7,1.8c2.7,0.7,5.4,1.8,7.8,3.2
	c0.8,0.5,1.8,0.4,2.5-0.1l6.3-4.5c0.1-0.1,0.3-0.1,0.4-0.1c0.1,0,0.3,0,0.4,0.2l5.4,5.4c0.2,0.2,0.2,0.6,0.1,0.8l-4.5,6.3
	c-0.5,0.7-0.6,1.7-0.1,2.5c1.4,2.4,2.5,5,3.2,7.6c0.2,0.9,0.9,1.5,1.8,1.7l7.6,1.3c0.3,0,0.5,0.3,0.5,0.6V45.7L80.5,45.7z
	 M41.8,25.2c-9.2,0-16.7,7.5-16.7,16.7c0,9.2,7.5,16.7,16.7,16.7c9.2,0,16.7-7.5,16.7-16.7C58.5,32.6,51,25.2,41.8,25.2z M41.8,55.4
	c-7.5,0-13.5-6.1-13.5-13.5c0-7.5,6.1-13.5,13.5-13.5c7.5,0,13.5,6.1,13.5,13.5C55.3,49.3,49.3,55.4,41.8,55.4z"/>
</svg>
