<?xml version="1.0" encoding="UTF-8" standalone="no"?>
<!-- Generator: Adobe Illustrator 19.0.0, SVG Export Plug-In . SVG Version: 6.00 Build 0)  -->
<svg id="Capa_1" style="enable-background:new 0 0 95.2 83.6" xmlns="http://www.w3.org/2000/svg" xml:space="preserve" viewBox="0 0 95.2 83.6" version="1.0" y="0px" x="0px" xmlns:xlink="http://www.w3.org/1999/xlink">
<style type="text/css">
	.st0{fill:#fff;}
</style>
<path class="st0" d="m74.9 40.9c5.5 0 10.6-2.2 14.3-6.1 5.1-5.1 7.2-12.9 5.3-19.7l-0.7-2.3-8.8 8.8c-1.6 1.6-3.6 2.4-5.8 2.4-2.1 0-4.1-0.9-5.6-2.4-1.6-1.6-2.5-3.7-2.4-5.9 0-2.1 0.9-4 2.4-5.5l8.9-8.9-2.3-0.7c-1.8-0.4-3.5-0.6-5.3-0.6-5.3 0-10.6 2.2-14.4 6-5.9 5.9-7.6 14.7-4.5 22.3l-8.3 8.3-8.3-8.3c3.1-7.6 1.4-16.5-4.5-22.3-3.9-3.8-9.2-6-14.5-6-1.8 0-3.6 0.2-5.3 0.7l-2.3 0.7 8.9 8.9c1.5 1.4 2.4 3.4 2.4 5.4 0 2.2-0.8 4.3-2.5 5.9-1.5 1.6-3.5 2.4-5.6 2.4s-4.2-0.9-5.8-2.4l-8.9-8.9-0.7 2.3c-1.8 6.9 0.2 14.6 5.4 19.8 3.8 3.9 8.9 6.1 14.4 6.1 2.7 0 5.4-0.5 8-1.6l8.3 8.4-22.9 22.7c-1.5 1.5-2.3 3.4-2.3 5.5s0.8 4 2.3 5.5 3.4 2.3 5.5 2.3 4-0.8 5.5-2.3l22.8-22.8 22.8 22.8c1.5 1.5 3.4 2.3 5.5 2.3s4-0.8 5.5-2.3c3-3 3-7.9 0-11l-22.8-22.8 8.3-8.4c2.5 1.1 5.3 1.7 8 1.7zm-46-5.1l-0.9 0.5c-2.4 1.1-5 1.7-7.7 1.7-4.7 0-9.1-1.8-12.3-5.2-3.8-3.8-5.6-9.3-5-14.4l5.2 5.2c2.1 2.1 4.9 3.3 7.8 3.3s5.7-1.2 7.6-3.3c2.1-2.2 3.3-5 3.3-7.9s-1.2-5.5-3.3-7.5l-5.2-5.2c5.2-0.6 10.6 1.3 14.3 5 5.2 5.2 6.7 13.3 3.5 20l-0.4 0.9 9.8 9.8-6.9 6.9-9.8-9.8zm50.4 36.7c1.9 1.9 1.9 5 0 6.9-1.8 1.8-5.1 1.8-6.9 0l-22.8-22.9 6.9-6.9 22.8 22.9zm-22.8-26.9l-2 2-6.9 6.9-2 2-22.8 22.9c-1.8 1.8-5.1 1.8-6.9 0-0.9-0.9-1.4-2.1-1.4-3.4s0.5-2.5 1.4-3.4l22.8-22.8 2-2 6.9-6.9 2-2 9.8-9.8-0.4-1.1c-3.1-6.7-1.7-14.8 3.5-20 3.3-3.3 7.8-5.2 12.4-5.2 0.7 0 1.3 0 2 0.1l-5.2 5.2c-2.1 2-3.2 4.6-3.3 7.5 0 3 1.1 5.8 3.2 7.9 2 2.1 4.7 3.3 7.6 3.3s5.7-1.2 7.8-3.3l5.2-5.2c0.6 5.1-1.2 10.6-5.1 14.4-3.2 3.4-7.6 5.2-12.3 5.2-2.6 0-5.3-0.6-7.7-1.7l-0.9-0.4-9.7 9.8z"/>
</svg>
