<?xml version="1.0" encoding="UTF-8" standalone="no"?>
<!-- Generator: Adobe Illustrator 19.0.0, SVG Export Plug-In . SVG Version: 6.00 Build 0)  -->
<svg id="Capa_1" style="enable-background:new 0 0 83.6 83.6" xmlns="http://www.w3.org/2000/svg" xml:space="preserve" viewBox="0 0 83.6 83.6" version="1.0" y="0px" x="0px" xmlns:xlink="http://www.w3.org/1999/xlink">
<style type="text/css">
	.st0{fill:#fff;}
</style>
<path class="st0" d="m79.4 33.2l-6-1c-0.6-2-1.4-4-2.4-5.9l3.5-4.9c1.4-2 1.2-4.7-0.5-6.5l-5.2-5.2c-1-1-2.2-1.5-3.6-1.5-1 0-2.1 0.3-2.9 0.9l-5 3.5c-1.9-1-4-1.9-6.1-2.5l-1-5.9c-0.4-2.4-2.5-4.2-5-4.2h-7.4c-2.5 0-4.6 1.8-5 4.2l-1 6c-2 0.6-4 1.5-5.9 2.5l-4.9-3.5c-0.9-0.6-1.9-0.9-2.9-0.9-1.3 0-2.6 0.5-3.6 1.5l-5 5.2c-1.7 1.7-2 4.5-0.5 6.5l3.6 5c-1 1.9-1.8 3.8-2.4 5.9l-5.9 1c-2.4 0.4-4.2 2.5-4.2 5v7.4c0 2.5 1.8 4.6 4.2 5l6 1c0.6 2 1.5 4 2.5 5.9l-3.5 4.9c-1.4 2-1.2 4.7 0.5 6.5l5.2 5.2c1 0.9 2.2 1.5 3.6 1.5 1 0 2.1-0.3 2.9-0.9l5-3.6c1.8 1 3.7 1.7 5.7 2.3l1 6c0.4 2.4 2.5 4.2 5 4.2h7.4c2.5 0 4.6-1.8 5-4.2l1-6c2-0.6 4-1.4 5.9-2.4l4.9 3.5c0.9 0.6 1.9 0.9 2.9 0.9 1.3 0 2.6-0.5 3.6-1.5l5.2-5.2c1.7-1.7 2-4.5 0.5-6.5l-3.5-5c1-1.9 1.8-3.8 2.4-5.9l6-1c2.4-0.4 4.2-2.5 4.2-5v-7.4c-0.1-2.4-1.8-4.5-4.3-4.9zm1.1 12.5c0 0.3-0.2 0.6-0.5 0.6l-7.6 1.3c-0.9 0.1-1.6 0.8-1.8 1.7-0.7 2.7-1.8 5.2-3.2 7.6-0.5 0.8-0.4 1.7 0.1 2.5l4.5 6.3c0.2 0.2 0.1 0.6-0.1 0.8l-5.4 5.4c-0.2 0.1-0.4 0.1-0.5 0.1s-0.2 0-0.4-0.1l-6.3-4.5c-0.7-0.5-1.7-0.6-2.5-0.1-2.4 1.4-5 2.5-7.6 3.2-0.9 0.2-1.5 0.9-1.7 1.8l-1.3 7.6c0 0.3-0.3 0.5-0.6 0.5h-7.6c-0.3 0-0.6-0.2-0.6-0.5l-1.3-7.6c-0.1-0.9-0.8-1.6-1.7-1.8-2.6-0.7-5.1-1.7-7.5-3.1-0.4-0.2-0.8-0.3-1.2-0.3-0.5 0-0.9 0.1-1.3 0.4l-6.3 4.5c-0.1 0.1-0.3 0.1-0.4 0.1s-0.3 0-0.5-0.2l-5.4-5.4c-0.2-0.2-0.2-0.6-0.1-0.8l4.5-6.2c0.5-0.7 0.6-1.7 0.1-2.5-1.4-2.4-2.5-4.9-3.2-7.6-0.2-0.9-0.9-1.5-1.8-1.7l-7.7-1.3c-0.3 0-0.5-0.3-0.5-0.6v-7.6c0-0.3 0.2-0.6 0.5-0.6l7.6-1.3c0.9-0.2 1.6-0.8 1.8-1.7 0.7-2.7 1.7-5.3 3.1-7.6 0.5-0.8 0.4-1.7-0.1-2.5l-4.5-6.3c-0.2-0.3-0.2-0.6 0.1-0.8l5.4-5.4c0.2-0.2 0.3-0.2 0.4-0.2s0.2 0 0.4 0.1l6.2 4.5c0.7 0.5 1.7 0.6 2.5 0.1 2.4-1.4 4.9-2.5 7.6-3.2 0.9-0.2 1.5-0.9 1.7-1.8l1.3-7.7c0.1-0.3 0.3-0.5 0.6-0.5h7.6c0.3 0 0.6 0.2 0.6 0.5l1.3 7.6c0.1 0.9 0.8 1.6 1.7 1.8 2.7 0.7 5.4 1.8 7.8 3.2 0.8 0.5 1.8 0.4 2.5-0.1l6.3-4.5c0.1-0.1 0.3-0.1 0.4-0.1s0.3 0 0.4 0.2l5.4 5.4c0.2 0.2 0.2 0.6 0.1 0.8l-4.5 6.3c-0.5 0.7-0.6 1.7-0.1 2.5 1.4 2.4 2.5 5 3.2 7.6 0.2 0.9 0.9 1.5 1.8 1.7l7.6 1.3c0.3 0 0.5 0.3 0.5 0.6v7.6h0.2zm-38.7-20.5c-9.2 0-16.7 7.5-16.7 16.7s7.5 16.7 16.7 16.7 16.7-7.5 16.7-16.7c0-9.3-7.5-16.7-16.7-16.7zm0 30.2c-7.5 0-13.5-6.1-13.5-13.5 0-7.5 6.1-13.5 13.5-13.5 7.5 0 13.5 6.1 13.5 13.5s-6 13.5-13.5 13.5z"/>
</svg>
