<?xml version="1.0" encoding="UTF-8" standalone="no"?>
<!-- Generator: Adobe Illustrator 19.0.0, SVG Export Plug-In . SVG Version: 6.00 Build 0)  -->
<svg id="Capa_1" style="enable-background:new 0 0 83.6 83.6" xmlns="http://www.w3.org/2000/svg" xml:space="preserve" viewBox="0 0 83.6 83.6" version="1.0" y="0px" x="0px" xmlns:xlink="http://www.w3.org/1999/xlink">
<style type="text/css">
	.st0{fill:#FFFFFF;}
</style>
	<path class="st0" d="m83.4 17.6l-17.4-17.3c-0.4-0.4-1-0.4-1.4 0l-22.3 22.3-3.9-3.9c-0.1-0.1-0.2-0.2-0.3-0.2l-2.3-1.2-1.2-0.6-30.7-15.1c-0.3-0.1-0.8-0.1-1.1 0.2s-0.4 0.8-0.2 1.2l16.8 34.1c0.1 0.1 0.2 0.2 0.2 0.3l3.9 3.9-23.2 23.4c-0.4 0.4-0.4 1 0 1.4l17.3 17.3c0.4 0.4 1 0.4 1.4 0l23.3-23.3 9.9 9.9c0.4 0.4 1 0.4 1.4 0l17.3-17.3c0.4-0.4 0.4-1 0-1.4l-9.9-10 22.4-22.3c0.3-0.4 0.3-1 0-1.4zm-63.8 15.4l-0.4-0.9-9.2-18.6 4.5-4.5 18.6 9.2 1.3 0.6c-0.9 0.3-1.7 0.8-2.3 1.4-1.4 1.4-1.6 3.1-1.5 4.3-1 0.2-2 0.6-2.7 1.4-1.1 1.1-1.6 2.6-1.9 3.5-2.2 0.1-4 0.7-5.1 1.9-0.7 0.5-1.1 1.1-1.3 1.7zm-1.3 48.3l-15.9-16 10.9-10.9 5.2 5.2c0.4 0.4 1 0.4 1.4 0s0.4-1 0-1.4l-5.2-5.2 2.3-2.3 5.2 5.2c0.4 0.4 1 0.4 1.4 0s0.4-1 0-1.4l-5.2-5.2 2.3-2.3 5.2 5.2c0.4 0.4 1 0.4 1.4 0s0.4-1 0-1.4l-5.3-5.1 2.3-2.3 9.8 9.8c0.4 0.4 1 0.4 1.4 0l5.5 5.5-22.7 22.6zm50.6-29.3l-16 15.9-9.2-9.2-1.4-1.4-15.9-16-1.4-1.4-3.8-3.8c-0.1-0.6-0.3-2.4 0.9-3.5 0.9-0.9 2.4-1.3 4.5-1.3 0.5 0 0.9-0.4 1-0.8 0 0 0.3-2 1.5-3.2 0.7-0.7 1.4-0.9 2.4-0.9 0.3 0 0.6-0.1 0.8-0.4 0.2-0.2 0.3-0.6 0.2-0.9 0 0-0.5-2.2 0.9-3.6 0.8-0.8 2.1-1.2 3.8-1.3l3.7 3.7 1.4 1.4 15.9 15.9 1.4 1.4 9.3 9.4zm-9.3-12.1l-10.2-10.1c0.1-0.3 0-0.6-0.3-0.9l-5.1-5.2 2.3-2.3 5.2 5.2c0.4 0.4 1 0.4 1.4 0s0.4-1 0-1.4l-5.2-5.2 2.3-2.3 5.2 5.2c0.4 0.4 1 0.4 1.4 0s0.4-1 0-1.4l-5.2-5.2 2.3-2.3 9.8 9.8c0.4 0.4 1 0.4 1.4 0s0.4-1 0-1.4l-9.9-9.7 2.2-2.1 0.1-0.1 5.2 5.2c0.4 0.4 1 0.4 1.4 0s0.4-1 0-1.4l-5.2-5.3 2.3-2.3 5.2 5.2c0.4 0.4 1 0.4 1.4 0s0.4-1 0-1.4l-5.2-5.2 3-3 15.9 15.9-21.7 21.7z"/>
	<path class="st0" d="m12.4 64.2c-1.9 1.9-1.9 5.1 0 7s5.1 1.9 7 0c2-1.9 2-5.1 0-7-1.9-1.9-5-1.9-7 0zm5.7 5.7c-1.2 1.2-3.1 1.2-4.3 0s-1.2-3.1 0-4.3 3.1-1.2 4.3 0 1.2 3.1 0 4.3z"/>
	<path class="st0" d="m76.2 57.9l-17.3 17.3c-0.4 0.4-0.4 1 0 1.4 2 2 5.7 3.6 8.9 3.6 1.7 0 3.3-0.5 4.5-1.6l7.3-7.3c3.2-3.2 1-10.4-2-13.4-0.4-0.4-1-0.4-1.4 0zm2 12.1l-7.3 7.3c-2.1 2.1-7.2 0.7-9.9-1.4l15.8-15.8c2.1 2.7 3.5 7.8 1.4 9.9z"/>
	<path class="st0" d="m49.3 53.1l-1.4-1.4-10.1-10.2-7.4-7.4c-0.4-0.4-1-0.4-1.4 0s-0.4 1 0 1.4l1.6 1.6 15.9 15.9 1.4 1.4 5.3 5.3c0.4 0.4 1 0.4 1.4 0s0.4-1 0-1.4l-5.3-5.2z"/>
	<path class="st0" d="m54 45.6l-16-15.9-1.4-1.4-0.2-0.2c-0.4-0.4-1-0.4-1.4 0s-0.4 1 0 1.4l0.2 0.2 6.6 6.6 10.8 10.7 1.4 1.4 5.3 5.3c0.4 0.4 1 0.4 1.4 0s0.4-1 0-1.4l-5.3-5.3-1.4-1.4z"/>
	<path class="st0" d="m75.5 55.8c-0.4-0.4-1-0.4-1.4 0l-17.4 17.3c-0.4 0.4-0.4 1 0 1.4s1 0.4 1.4 0l17.3-17.3c0.4-0.4 0.4-1 0.1-1.4z"/>
	<path class="st0" d="m73.3 53.6c-0.4-0.4-1-0.4-1.4 0l-17.3 17.3c-0.4 0.4-0.4 1 0 1.4s1 0.4 1.4 0l17.3-17.3c0.4-0.4 0.4-1 0-1.4z"/>
</svg>
