<?xml version="1.0" encoding="utf-8"?>
<!-- Generator: Adobe Illustrator 19.0.0, SVG Export Plug-In . SVG Version: 6.00 Build 0)  -->
<svg version="1.0" id="Capa_1" xmlns="http://www.w3.org/2000/svg" xmlns:xlink="http://www.w3.org/1999/xlink" x="0px" y="0px"
	 viewBox="0 0 83.6 83.6" style="enable-background:new 0 0 83.6 83.6;" xml:space="preserve">
<style type="text/css">
	.st0{fill:#414042;}
</style>
<g>
	<path class="st0" d="M83.4,17.6L66,0.3c-0.4-0.4-1-0.4-1.4,0L42.3,22.6l-3.9-3.9c-0.1-0.1-0.2-0.2-0.3-0.2l-2.3-1.2l-1.2-0.6
		L3.9,1.6C3.6,1.5,3.1,1.5,2.8,1.8C2.5,2.1,2.4,2.6,2.6,3l16.8,34.1c0.1,0.1,0.2,0.2,0.2,0.3l0,0l3.9,3.9L0.3,64.7
		c-0.4,0.4-0.4,1,0,1.4l17.3,17.3c0.4,0.4,1,0.4,1.4,0l23.3-23.3l9.9,9.9c0.4,0.4,1,0.4,1.4,0l17.3-17.3c0.4-0.4,0.4-1,0-1.4
		L61,41.3L83.4,19C83.7,18.6,83.7,18,83.4,17.6z M19.6,33l-0.4-0.9L10,13.5L14.5,9l18.6,9.2l1.3,0.6c-0.9,0.3-1.7,0.8-2.3,1.4
		c-1.4,1.4-1.6,3.1-1.5,4.3c-1,0.2-2,0.6-2.7,1.4c-1.1,1.1-1.6,2.6-1.9,3.5c-2.2,0.1-4,0.7-5.1,1.9C20.2,31.8,19.8,32.4,19.6,33z
		 M18.3,81.3L2.4,65.3l10.9-10.9l5.2,5.2c0.4,0.4,1,0.4,1.4,0c0.4-0.4,0.4-1,0-1.4l-5.2-5.2l2.3-2.3l5.2,5.2c0.4,0.4,1,0.4,1.4,0
		c0.4-0.4,0.4-1,0-1.4l-5.2-5.2l2.3-2.3l5.2,5.2c0.4,0.4,1,0.4,1.4,0c0.4-0.4,0.4-1,0-1.4L22,45.7l2.3-2.3l9.8,9.8
		c0.4,0.4,1,0.4,1.4,0c0,0,0,0,0,0l5.5,5.5L18.3,81.3z M68.9,52L52.9,67.9l-9.2-9.2l-1.4-1.4L26.4,41.3L25,39.9l-3.8-3.8
		c-0.1-0.6-0.3-2.4,0.9-3.5c0.9-0.9,2.4-1.3,4.5-1.3c0.5,0,0.9-0.4,1-0.8c0,0,0.3-2,1.5-3.2c0.7-0.7,1.4-0.9,2.4-0.9
		c0.3,0,0.6-0.1,0.8-0.4c0.2-0.2,0.3-0.6,0.2-0.9c0,0-0.5-2.2,0.9-3.6c0.8-0.8,2.1-1.2,3.8-1.3l3.7,3.7l1.4,1.4l15.9,15.9l1.4,1.4
		L68.9,52z M59.6,39.9L49.4,29.8c0.1-0.3,0-0.6-0.3-0.9L44,23.7l2.3-2.3l5.2,5.2c0.4,0.4,1,0.4,1.4,0c0.4-0.4,0.4-1,0-1.4L47.7,20
		l2.3-2.3l5.2,5.2c0.4,0.4,1,0.4,1.4,0c0.4-0.4,0.4-1,0-1.4l-5.2-5.2l2.3-2.3l9.8,9.8c0.4,0.4,1,0.4,1.4,0c0.4-0.4,0.4-1,0-1.4
		L55,12.7l2.2-2.1l0.1-0.1l5.2,5.2c0.4,0.4,1,0.4,1.4,0c0.4-0.4,0.4-1,0-1.4L58.7,9L61,6.7l5.2,5.2c0.4,0.4,1,0.4,1.4,0
		c0.4-0.4,0.4-1,0-1.4l-5.2-5.2l3-3l15.9,15.9L59.6,39.9z"/>
	<path class="st0" d="M12.4,64.2c-1.9,1.9-1.9,5.1,0,7c1.9,1.9,5.1,1.9,7,0c2-1.9,2-5.1,0-7C17.5,62.3,14.4,62.3,12.4,64.2z
		 M18.1,69.9c-1.2,1.2-3.1,1.2-4.3,0c-1.2-1.2-1.2-3.1,0-4.3c1.2-1.2,3.1-1.2,4.3,0C19.3,66.8,19.3,68.7,18.1,69.9z"/>
	<path class="st0" d="M76.2,57.9L58.9,75.2c-0.4,0.4-0.4,1,0,1.4c2,2,5.7,3.6,8.9,3.6c1.7,0,3.3-0.5,4.5-1.6l7.3-7.3
		c3.2-3.2,1-10.4-2-13.4C77.2,57.5,76.6,57.5,76.2,57.9z M78.2,70l-7.3,7.3c-2.1,2.1-7.2,0.7-9.9-1.4l15.8-15.8
		C78.9,62.8,80.3,67.9,78.2,70z"/>
	<path class="st0" d="M49.3,53.1l-1.4-1.4L37.8,41.5l-7.4-7.4c-0.4-0.4-1-0.4-1.4,0c-0.4,0.4-0.4,1,0,1.4l1.6,1.6l15.9,15.9l1.4,1.4
		l5.3,5.3c0.4,0.4,1,0.4,1.4,0c0.4-0.4,0.4-1,0-1.4L49.3,53.1z"/>
	<path class="st0" d="M54,45.6L38,29.7l-1.4-1.4l-0.2-0.2c-0.4-0.4-1-0.4-1.4,0c-0.4,0.4-0.4,1,0,1.4l0.2,0.2l6.6,6.6L52.6,47
		l1.4,1.4l5.3,5.3c0.4,0.4,1,0.4,1.4,0c0.4-0.4,0.4-1,0-1.4L55.4,47L54,45.6z"/>
	<path class="st0" d="M75.5,55.8c-0.4-0.4-1-0.4-1.4,0L56.7,73.1c-0.4,0.4-0.4,1,0,1.4c0.4,0.4,1,0.4,1.4,0l17.3-17.3
		C75.8,56.8,75.8,56.2,75.5,55.8z"/>
	<path class="st0" d="M73.3,53.6c-0.4-0.4-1-0.4-1.4,0L54.6,70.9c-0.4,0.4-0.4,1,0,1.4c0.4,0.4,1,0.4,1.4,0L73.3,55
		C73.7,54.6,73.7,54,73.3,53.6z"/>
</g>
</svg>
