<?xml version="1.0" encoding="utf-8"?>
<!-- Generator: Adobe Illustrator 19.0.0, SVG Export Plug-In . SVG Version: 6.00 Build 0)  -->
<svg version="1.0" id="Capa_1" xmlns="http://www.w3.org/2000/svg" xmlns:xlink="http://www.w3.org/1999/xlink" x="0px" y="0px"
	 viewBox="0 0 95.2 83.6" style="enable-background:new 0 0 95.2 83.6;" xml:space="preserve">
<style type="text/css">
	.st0{fill:#fff;}
</style>
<path class="st0" d="M74.9,40.9c5.5,0,10.6-2.2,14.3-6.1c5.1-5.1,7.2-12.9,5.3-19.7l-0.7-2.3L85,21.6c-1.6,1.6-3.6,2.4-5.8,2.4
	c-2.1,0-4.1-0.9-5.6-2.4c-1.6-1.6-2.5-3.7-2.4-5.9c0-2.1,0.9-4,2.4-5.5l8.9-8.9l-2.3-0.7C78.4,0.2,76.7,0,74.9,0
	c-5.3,0-10.6,2.2-14.4,6c-5.9,5.9-7.6,14.7-4.5,22.3l-8.3,8.3l-8.3-8.3c3.1-7.6,1.4-16.5-4.5-22.3C31,2.2,25.7,0,20.4,0
	c-1.8,0-3.6,0.2-5.3,0.7l-2.3,0.7l8.9,8.9c1.5,1.4,2.4,3.4,2.4,5.4c0,2.2-0.8,4.3-2.5,5.9C20.1,23.2,18.1,24,16,24
	c-2.1,0-4.2-0.9-5.8-2.4l-8.9-8.9l-0.7,2.3C-1.2,21.9,0.8,29.6,6,34.8c3.8,3.9,8.9,6.1,14.4,6.1c2.7,0,5.4-0.5,8-1.6l8.3,8.4
	L13.8,70.4c-1.5,1.5-2.3,3.4-2.3,5.5c0,2.1,0.8,4,2.3,5.5c1.5,1.5,3.4,2.3,5.5,2.3c2.1,0,4-0.8,5.5-2.3l22.8-22.8l22.8,22.8
	c1.5,1.5,3.4,2.3,5.5,2.3c2.1,0,4-0.8,5.5-2.3c3-3,3-7.9,0-11L58.6,47.6l8.3-8.4C69.4,40.3,72.2,40.9,74.9,40.9z M28.9,35.8L28,36.3
	C25.6,37.4,23,38,20.3,38c-4.7,0-9.1-1.8-12.3-5.2C4.2,29,2.4,23.5,3,18.4l5.2,5.2c2.1,2.1,4.9,3.3,7.8,3.3c2.9,0,5.7-1.2,7.6-3.3
	c2.1-2.2,3.3-5,3.3-7.9c0-2.9-1.2-5.5-3.3-7.5L18.4,3C23.6,2.4,29,4.3,32.7,8c5.2,5.2,6.7,13.3,3.5,20l-0.4,0.9l9.8,9.8l-6.9,6.9
	L28.9,35.8z M79.3,72.5c1.9,1.9,1.9,5,0,6.9c-1.8,1.8-5.1,1.8-6.9,0L49.6,56.5l6.9-6.9L79.3,72.5z M56.5,45.6l-2,2l-6.9,6.9l-2,2
	L22.8,79.4c-1.8,1.8-5.1,1.8-6.9,0c-0.9-0.9-1.4-2.1-1.4-3.4c0-1.3,0.5-2.5,1.4-3.4l22.8-22.8l2-2l6.9-6.9l2-2l9.8-9.8L59,28
	c-3.1-6.7-1.7-14.8,3.5-20c3.3-3.3,7.8-5.2,12.4-5.2c0.7,0,1.3,0,2,0.1l-5.2,5.2c-2.1,2-3.2,4.6-3.3,7.5c0,3,1.1,5.8,3.2,7.9
	c2,2.1,4.7,3.3,7.6,3.3c2.9,0,5.7-1.2,7.8-3.3l5.2-5.2c0.6,5.1-1.2,10.6-5.1,14.4c-3.2,3.4-7.6,5.2-12.3,5.2c-2.6,0-5.3-0.6-7.7-1.7
	l-0.9-0.4L56.5,45.6z"/>
</svg>
