<?xml version="1.0" encoding="utf-8"?>
<!-- Generator: Adobe Illustrator 19.0.0, SVG Export Plug-In . SVG Version: 6.00 Build 0)  -->
<svg version="1.0" id="Capa_1" xmlns="http://www.w3.org/2000/svg" xmlns:xlink="http://www.w3.org/1999/xlink" x="0px" y="0px"
	 viewBox="0 0 43.9 35.7" style="enable-background:new 0 0 43.9 35.7;" xml:space="preserve">
<style type="text/css">
	.st0{fill:#FFFFFF;}
</style>
<g>
	<path class="st0" d="M43.9,4.2c-1.6,0.7-3.4,1.2-5.2,1.4c1.9-1.1,3.3-2.9,4-5c-1.7,1-3.7,1.8-5.7,2.2C35.3,1.1,33,0,30.4,0
		c-5,0-9,4-9,9c0,0.7,0.1,1.4,0.2,2.1c-7.5-0.4-14.1-4-18.6-9.4C2.3,3,1.8,4.5,1.8,6.2c0,3.1,1.6,5.9,4,7.5c-1.5,0-2.9-0.5-4.1-1.1
		c0,0,0,0.1,0,0.1c0,4.4,3.1,8,7.2,8.8c-0.8,0.2-1.6,0.3-2.4,0.3c-0.6,0-1.1-0.1-1.7-0.2c1.1,3.6,4.5,6.2,8.4,6.3
		c-3.1,2.4-7,3.9-11.2,3.9c-0.7,0-1.4,0-2.1-0.1c4,2.6,8.7,4,13.8,4c16.6,0,25.6-13.7,25.6-25.6c0-0.4,0-0.8,0-1.2
		C41.2,7.6,42.7,6,43.9,4.2L43.9,4.2z M43.9,4.2"/>
</g>
</svg>
