<?xml version="1.0" encoding="utf-8"?>
<!-- Generator: Adobe Illustrator 19.0.0, SVG Export Plug-In . SVG Version: 6.00 Build 0)  -->
<svg version="1.0" id="Capa_1" xmlns="http://www.w3.org/2000/svg" xmlns:xlink="http://www.w3.org/1999/xlink" x="0px" y="0px"
	 viewBox="-323 324 53 53" style="enable-background:new -323 324 53 53;" xml:space="preserve">
<style type="text/css">
	.st0{fill:#63B0E1;height: 80px;width:auto;}
</style>
<g>
	<path class="st0" d="M-286.5,329.3L-286.5,329.3c-7.1-7.1-18.6-7.1-25.7,0l0,0c-6.4,6.4-7.1,18.4-1.7,25.7l14.5,21l14.5-21
		C-279.4,347.8-280.1,335.7-286.5,329.3z M-299.1,348c-3.3,0-6-2.7-6-6s2.7-6,6-6s6,2.7,6,6S-295.8,348-299.1,348z"/>
</g>
<g>
	<path class="st0" d="M-277.9,363c0.5-0.5,1-0.5,1.2-0.5h2.4c-0.3,0.4-0.7,1-0.7,1h1.2l1-1.5l-1-1.5h-1.2c0,0,0.4,0.5,0.7,1h-2.5
		c-0.8,0-1.4,0.3-1.9,0.8l-5.2,5.3c-0.1,0.1-0.3,0.2-0.5,0.3c-0.3-1.8-1.9-3.2-3.9-3.2c-2.2,0-3.9,1.8-3.9,3.9
		c0,2.2,1.8,3.9,3.9,3.9c2,0,3.7-1.6,3.9-3.5c0.4-0.1,0.8-0.4,1.1-0.7L-277.9,363z M-288.1,371.6c-1.6,0-2.9-1.3-2.9-2.9
		c0-1.6,1.3-2.9,2.9-2.9c1.4,0,2.6,1,2.8,2.4l-3.5,0l0.7,1h2.8C-285.5,370.5-286.7,371.6-288.1,371.6z"/>
	<path class="st0" d="M-283.8,363l1.5,1.6l0.7-0.7l-1.5-1.6c-0.5-0.5-1.2-0.8-1.9-0.8h-3l-0.7,1l3.7,0
		C-284.6,362.5-284.1,362.7-283.8,363z"/>
	<path class="st0" d="M-274.1,364.8c-1.8,0-3.3,1.2-3.8,2.9l-1.5-1.5l-0.7,0.7l1.5,1.5c0.2,0.2,0.4,0.3,0.6,0.4
		c0.1,2.1,1.8,3.8,3.9,3.8c2.2,0,3.9-1.8,3.9-3.9C-270.2,366.5-272,364.8-274.1,364.8z M-274.1,371.6c-1.4,0-2.6-1-2.8-2.4
		c0.1,0,0.2,0,0.3,0h2.5c-0.3,0.4-0.7,1-0.7,1h1.2l1-1.5l-1-1.5h-1.2c0,0,0.4,0.5,0.7,1h-2.4c-0.1,0-0.2,0-0.3,0
		c0.3-1.3,1.4-2.3,2.8-2.3c1.6,0,2.9,1.3,2.9,2.9C-271.3,370.3-272.5,371.6-274.1,371.6z"/>
</g>
</svg>
