<?xml version="1.0" encoding="UTF-8" standalone="no"?>
<!-- Generator: Adobe Illustrator 19.0.0, SVG Export Plug-In . SVG Version: 6.00 Build 0)  -->
<svg id="Capa_1" style="enable-background:new -323 324 53 53" xmlns="http://www.w3.org/2000/svg" xml:space="preserve" viewBox="-323 324 53 53" version="1.0" y="0px" x="0px" xmlns:xlink="http://www.w3.org/1999/xlink">
<style type="text/css">
	.st0{fill:#63B0E1;height: 80px;width:auto;}
</style>
	<path class="st0" d="m-286.5 329.3c-7.1-7.1-18.6-7.1-25.7 0-6.4 6.4-7.1 18.4-1.7 25.7l14.5 21 14.5-21c5.5-7.2 4.8-19.3-1.6-25.7zm-12.6 18.7c-3.3 0-6-2.7-6-6s2.7-6 6-6 6 2.7 6 6-2.7 6-6 6z"/>
	<path class="st0" d="m-277.9 363c0.5-0.5 1-0.5 1.2-0.5h2.4c-0.3 0.4-0.7 1-0.7 1h1.2l1-1.5-1-1.5h-1.2s0.4 0.5 0.7 1h-2.5c-0.8 0-1.4 0.3-1.9 0.8l-5.2 5.3c-0.1 0.1-0.3 0.2-0.5 0.3-0.3-1.8-1.9-3.2-3.9-3.2-2.2 0-3.9 1.8-3.9 3.9 0 2.2 1.8 3.9 3.9 3.9 2 0 3.7-1.6 3.9-3.5 0.4-0.1 0.8-0.4 1.1-0.7l5.4-5.3zm-10.2 8.6c-1.6 0-2.9-1.3-2.9-2.9s1.3-2.9 2.9-2.9c1.4 0 2.6 1 2.8 2.4h-3.5l0.7 1h2.8c-0.2 1.3-1.4 2.4-2.8 2.4z"/>
	<path class="st0" d="m-283.8 363l1.5 1.6 0.7-0.7-1.5-1.6c-0.5-0.5-1.2-0.8-1.9-0.8h-3l-0.7 1h3.7c0.4 0 0.9 0.2 1.2 0.5z"/>
	<path class="st0" d="m-274.1 364.8c-1.8 0-3.3 1.2-3.8 2.9l-1.5-1.5-0.7 0.7 1.5 1.5c0.2 0.2 0.4 0.3 0.6 0.4 0.1 2.1 1.8 3.8 3.9 3.8 2.2 0 3.9-1.8 3.9-3.9 0-2.2-1.8-3.9-3.9-3.9zm0 6.8c-1.4 0-2.6-1-2.8-2.4h0.3 2.5c-0.3 0.4-0.7 1-0.7 1h1.2l1-1.5-1-1.5h-1.2s0.4 0.5 0.7 1h-2.4-0.3c0.3-1.3 1.4-2.3 2.8-2.3 1.6 0 2.9 1.3 2.9 2.9-0.2 1.5-1.4 2.8-3 2.8z"/>
</svg>
