<?xml version="1.0" encoding="utf-8"?>
<!-- Generator: Adobe Illustrator 22.0.1, SVG Export Plug-In . SVG Version: 6.00 Build 0)  -->
<svg version="1.1" id="Layer_1" xmlns="http://www.w3.org/2000/svg" xmlns:xlink="http://www.w3.org/1999/xlink" x="437px" y="199px"
	 viewBox="0 0 337 99.1" style="enable-background:new 0 0 337 99.1;" xml:space="preserve">
<style type="text/css">
	.st0{clip-path:url(#SVGID_2_);fill:#00C9E3;}
</style>
<g>
	<g>
		<defs>
			<rect id="SVGID_1_" y="0" width="437" height="199"/>
		</defs>
		<clipPath id="SVGID_2_">
			<use xlink:href="#SVGID_1_"  style="overflow:visible;"/>
		</clipPath>
		<path class="st0" d="M326.2,89.3H324v9.5h1.7v-6.9h0l3.2,6.9h2.1v-9.5h-1.7v7h-0.1L326.2,89.3z M314.9,93c0-1.9,0.6-2.5,1.9-2.5
			c1.3,0,2,0.6,2,2.5v2.2c0,1.8-0.6,2.5-2,2.5c-1.3,0-1.9-0.6-1.9-2.5V93z M313.1,93.1v2.1c0,3,1.5,3.9,3.7,3.9
			c2.2,0,3.7-0.9,3.7-3.9v-2.1c0-3-1.5-3.9-3.7-3.9C314.6,89.2,313.1,90.1,313.1,93.1 M309.7,89.3h-1.8v9.5h1.8V89.3z M304.9,89.3
			H298v1.4h2.6v8.1h1.8v-8.1h2.6V89.3z M291.4,94.7l0.9-3.9h0.4l1,3.9H291.4z M290.9,89.3l-2.3,9.5h1.8l0.6-2.7h3l0.7,2.7h1.8
			l-2.3-9.5H290.9z M285.6,89.3h-1.8v9.5h1.8V89.3z M273.7,93v2.1c0,3,1.3,4,3.8,4c1.5,0,2.4-0.3,2.9-0.6V97
			c-0.6,0.3-1.7,0.6-2.7,0.6c-1.6,0-2.2-0.6-2.2-2.4v-2.6c0-1.7,0.6-2.2,1.8-2.2c1.2,0,1.6,0.5,1.6,1.9v1h1.5v-1.1
			c0-2.5-1.2-3.2-3.2-3.2C275,89.2,273.7,90.2,273.7,93 M264.9,93c0-1.9,0.6-2.5,1.9-2.5c1.3,0,2,0.6,2,2.5v2.2c0,1.8-0.6,2.5-2,2.5
			c-1.3,0-1.9-0.6-1.9-2.5V93z M263.1,93.1v2.1c0,3,1.5,3.9,3.7,3.9c2.2,0,3.7-0.9,3.7-3.9v-2.1c0-3-1.5-3.9-3.7-3.9
			C264.6,89.2,263.1,90.1,263.1,93.1 M255.1,95.8h-1.7v0.8c0,1.6,1.1,2.5,3.4,2.5c2,0,3.3-0.7,3.3-2.7c0-1.7-0.7-2.3-1.9-2.6l-2-0.6
			c-0.8-0.2-0.9-0.6-0.9-1.2c0-0.9,0.3-1.3,1.5-1.3c1.2,0,1.5,0.5,1.5,1.3v0.6h1.7v-0.7c0-1.6-0.9-2.6-3.1-2.6
			c-2.4,0-3.3,0.9-3.3,2.8c0,1.8,1,2.3,1.8,2.5L257,95c1.2,0.4,1.4,0.7,1.4,1.5c0,0.9-0.5,1.2-1.6,1.2c-1.1,0-1.7-0.4-1.7-1.5
			L255.1,95.8L255.1,95.8z M245.4,95.8h-1.7v0.8c0,1.6,1.1,2.5,3.4,2.5c2,0,3.3-0.7,3.3-2.7c0-1.7-0.7-2.3-1.9-2.6l-2-0.6
			c-0.8-0.2-0.9-0.6-0.9-1.2c0-0.9,0.3-1.3,1.5-1.3c1.2,0,1.5,0.5,1.5,1.3v0.6h1.7v-0.7c0-1.6-0.9-2.6-3.1-2.6
			c-2.4,0-3.3,0.9-3.3,2.8c0,1.8,1,2.3,1.8,2.5l1.7,0.5c1.2,0.4,1.4,0.7,1.4,1.5c0,0.9-0.5,1.2-1.6,1.2c-1.1,0-1.7-0.4-1.7-1.5
			L245.4,95.8L245.4,95.8z M236.1,94.7l0.9-3.9h0.4l1,3.9H236.1z M235.7,89.3l-2.3,9.5h1.8l0.6-2.7h3l0.7,2.7h1.8l-2.3-9.5H235.7z
			 M226.5,89.3h-6.2v9.5h6.2v-1.5h-4.4v-2.7h3.6v-1.4h-3.6v-2.5h4.4V89.3z M212.1,90.8h1.3c1.4,0,1.8,0.5,1.8,1.7
			c0,1.2-0.6,1.7-1.7,1.7h-1.4L212.1,90.8L212.1,90.8z M213.3,89.3h-2.9v9.5h1.8v-3.4h1.3l1.9,3.4h2l-2.1-3.6
			c1.1-0.4,1.8-1.4,1.8-2.8C217,90.1,216.1,89.3,213.3,89.3 M202.2,94.7l0.9-3.9h0.4l1,3.9H202.2z M201.8,89.3l-2.3,9.5h1.8l0.6-2.7
			h3l0.7,2.7h1.8l-2.3-9.5H201.8z M191.1,89.3h-1.8v9.5h1.8v-4.2h3.6v4.2h1.8v-9.5h-1.8v3.9h-3.6V89.3z M181,95.8h-1.7v0.8
			c0,1.6,1.1,2.5,3.4,2.5c2,0,3.3-0.7,3.3-2.7c0-1.7-0.7-2.3-1.9-2.6l-2-0.6c-0.8-0.2-0.9-0.6-0.9-1.2c0-0.9,0.3-1.3,1.5-1.3
			c1.2,0,1.5,0.5,1.5,1.3v0.6h1.7v-0.7c0-1.6-0.9-2.6-3.1-2.6c-2.4,0-3.3,0.9-3.3,2.8c0,1.8,1,2.3,1.8,2.5l1.7,0.5
			c1.2,0.4,1.4,0.7,1.4,1.5c0,0.9-0.5,1.2-1.6,1.2c-1.1,0-1.7-0.4-1.7-1.5L181,95.8L181,95.8z M176.4,89.3h-6.2v9.5h6.2v-1.5H172
			v-2.7h3.6v-1.4H172v-2.5h4.4V89.3z M162,89.3h-1.8v9.5h1.8v-4h1.2l2.3,4h1.9l-2.7-4.9v-0.1l2.7-4.5h-1.8l-2.4,4H162V89.3z
			 M156.4,89.3h-1.8v9.5h1.8V89.3z M147.7,90.6c1.2,0,1.6,0.5,1.6,1.4c0,1.2-0.5,1.4-1.5,1.4h-1.5v-2.8H147.7z M146.3,94.7h1.5
			c1.2,0,1.7,0.2,1.7,1.3c0,1.2-0.5,1.5-1.8,1.5h-1.5V94.7z M147.9,89.3h-3.4v9.5h3.5c2.1,0,3.2-0.6,3.2-2.7c0-1.3-0.5-2-1.5-2.4
			c0.7-0.2,1.2-0.7,1.2-2C151,90.3,150.3,89.3,147.9,89.3 M131.3,89.3h-2.1v9.5h1.7v-6.9h0l3.2,6.9h2.1v-9.5h-1.7v7h-0.1L131.3,89.3
			z M121.1,94.7l0.9-3.9h0.4l1,3.9H121.1z M120.7,89.3l-2.3,9.5h1.8l0.6-2.7h3l0.7,2.7h1.8l-2.3-9.5H120.7z M109,93v2.1
			c0,3,1.3,4,3.8,4c1.5,0,2.4-0.3,2.9-0.6V97c-0.6,0.3-1.7,0.6-2.7,0.6c-1.6,0-2.2-0.6-2.2-2.4v-2.6c0-1.7,0.6-2.2,1.8-2.2
			c1.2,0,1.6,0.5,1.6,1.9v1h1.5v-1.1c0-2.5-1.2-3.2-3.2-3.2C110.3,89.2,109,90.2,109,93 M105.6,89.3h-1.8v9.5h1.8V89.3z M95.6,90.8
			h1.3c1.4,0,1.8,0.5,1.8,1.7c0,1.2-0.6,1.7-1.7,1.7h-1.4V90.8z M96.8,89.3h-2.9v9.5h1.8v-3.4h1.3l1.9,3.4h2l-2.1-3.6
			c1.1-0.4,1.8-1.4,1.8-2.8C100.4,90.1,99.5,89.3,96.8,89.3 M90.5,89.3h-6.2v9.5h6.2v-1.5h-4.4v-2.7h3.6v-1.4h-3.6v-2.5h4.4V89.3z
			 M74.2,89.3h-2.8v9.5h1.7v-7.4h0.2l1.7,5.1h1.7l1.8-5.1h0.2v7.3h1.7v-9.5h-2.7L76,94.9L74.2,89.3z M63.3,94.7l0.9-3.9h0.4l1,3.9
			H63.3z M62.8,89.3l-2.3,9.5h1.8l0.6-2.7h3l0.7,2.7h1.8L66,89.3H62.8z M47.9,89.3h-1.8v9.5h1.8v-4.2h3.6v4.2h1.8v-9.5h-1.8v3.9
			h-3.6V89.3z M43.1,89.3h-6.9v1.4h2.6v8.1h1.8v-8.1h2.6V89.3z M28.9,90.8h1.3c1.4,0,1.8,0.5,1.8,1.7c0,1.2-0.6,1.7-1.7,1.7h-1.4
			C28.9,94.1,28.9,90.8,28.9,90.8z M30.1,89.3h-2.9v9.5h1.8v-3.4h1.3l1.9,3.4h2L32,95.2c1.1-0.4,1.8-1.4,1.8-2.8
			C33.8,90.1,32.9,89.3,30.1,89.3 M18,93c0-1.9,0.6-2.5,1.9-2.5c1.3,0,2,0.6,2,2.5v2.2c0,1.8-0.6,2.5-2,2.5c-1.3,0-1.9-0.6-1.9-2.5
			V93z M16.3,93.1v2.1c0,3,1.5,3.9,3.7,3.9c2.2,0,3.7-0.9,3.7-3.9v-2.1c0-3-1.5-3.9-3.7-3.9C17.8,89.2,16.3,90.1,16.3,93.1
			 M7.9,89.3H5.7v9.5h1.7v-6.9h0l3.2,6.9h2.1v-9.5h-1.7v7h-0.1L7.9,89.3z M100.2,43.4h8.2L105.1,28h-1.5L100.2,43.4z M175.3,32
			c0-3.3-1.6-4.9-5.7-4.9h-4.8v10.1h5.2C173.5,37.2,175.3,36.1,175.3,32 M176.5,49c0-3.8-2-4.8-6.4-4.8h-5.3v10.1h5.3
			C174.6,54.3,176.5,53.2,176.5,49 M293,43.4h8.2L297.8,28h-1.5L293,43.4z M316,61.9h-10.7L303,51.6h-11.7L289,61.9h-10.4l9.5-42.1
			h18.2L316,61.9z M228.3,31.4c0,2.2,0.6,3.6,3.4,4.5l8.9,2.5c5.6,1.7,9,4.6,9,11.9c0,9.3-6.5,12.6-16.3,12.6
			c-10.9,0-15.8-3.9-15.8-10.9v-3.4H228v1.2c0,4,2,5.4,5.8,5.4c3.9,0,5.4-1.2,5.4-4.1c0-2.8-0.7-4-4.8-5.2l-7.7-2.1
			c-3.7-1-8.7-3.5-8.7-11.7c0-8.7,4.3-13,15.6-13c10.8,0,15.2,4.2,15.2,11.4v3.8h-10.4v-2.5c0-3.1-1.1-4.8-5-4.8
			C229.5,26.9,228.3,28.3,228.3,31.4 M179.6,39.4c4.8,1.3,7.2,4.7,7.2,10.6c-0.1,8.7-5.1,11.9-14.6,11.9h-17.9V19.8h17.6
			c10.2,0,13.5,4.1,13.5,10.6C185.4,35.8,182.9,38.4,179.6,39.4 M123.3,61.9h-10.7l-2.3-10.3H98.5l-2.2,10.3H85.9l9.5-42.1h18.2
			L123.3,61.9z M54.8,61.9h-11L31,35.7h-0.1v26.2H21V19.8h10.9l12.8,26.6h0.2V19.8h9.8V61.9z M337,0H0v81.9h337V0z"/>
	</g>
</g>
</svg>
