<?xml version="1.0" encoding="UTF-8" standalone="no"?>
<!-- Generator: Adobe Illustrator 18.1.1, SVG Export Plug-In . SVG Version: 6.00 Build 0)  -->
<svg id="Capa_1" style="enable-background:new 0 0 424 424" xmlns="http://www.w3.org/2000/svg" xml:space="preserve" viewBox="0 0 424 424" height="512px" width="512px" version="1.1" y="0px" x="0px" xmlns:xlink="http://www.w3.org/1999/xlink">
	<g fill="#58585b">
		<path d="m35 89c-20 0-35-15-35-35s15-36 35-36h353c20 0 36 16 36 36s-16 35-36 35h-353z"/>
		<path d="m388 176c20 0 36 16 36 36s-16 35-36 35h-353c-20 0-35-15-35-35s15-36 35-36h353z"/>
		<path d="m388 335c20 0 36 15 36 35s-16 36-36 36h-353c-20 0-35-16-35-36s15-35 35-35h353z"/>
	</g>
</svg>
